<?xml version="1.0" encoding="utf-8"?>
<svg xmlns="http://www.w3.org/2000/svg" width="1640" height="924" viewBox="0 0 1640 924">
  <defs>
    <linearGradient id="bg" x1="0" y1="0" x2="1" y2="1">
      <stop offset="0" stop-color="#0F0719"/>
      <stop offset="1" stop-color="#1A0F2E"/>
    </linearGradient>
  </defs>
  <rect width="1640" height="924" fill="url(#bg)"/>

  <!-- Subtle grid -->
  <g stroke="#FEFEFE" stroke-opacity="0.04" stroke-width="1">
    <line x1="0" y1="200" x2="1640" y2="200"/>
    <line x1="0" y1="724" x2="1640" y2="724"/>
    <line x1="410" y1="0" x2="410" y2="924"/>
    <line x1="1230" y1="0" x2="1230" y2="924"/>
  </g>

  <!-- BTW wordmark, centered. Source viewBox is 340 250 710 256, target width 820px, height ~296px -->
  <!-- target box: x=410, y=310, w=820, h=296. -->
  <!-- Scale = 820/710 ≈ 1.155. translate so that viewBox(340,250) maps to (410,310): -->
  <!--   tx = 410 - 340 * 1.155 = 410 - 392.7 = 17.3 -->
  <!--   ty = 310 - 250 * 1.155 = 310 - 288.75 = 21.25 -->
  <g transform="translate(17.3, 21.25) scale(1.155)">
    <!-- B -->
    <path fill="#FEFEFE" fill-rule="evenodd" clip-rule="evenodd" d="M347.213 255.386L394.296 255.475C394.231 287.346 394.483 319.758 393.98 351.571C403.414 326.397 420.201 313.702 446.892 310.419C465.515 308.069 484.296 313.372 498.942 325.115C540.836 358.21 544.84 430.035 512.44 470.991C510.16 473.57 507.624 476.159 505.032 478.492C474.763 505.749 418.794 502.565 398.5 464.776C396.457 460.973 395.179 456.877 393.923 452.708C394.661 465.19 394.343 479.734 394.349 492.386L347.202 492.409L347.213 255.386ZM435.343 355.325C481.73 353.047 496.858 405.67 472.148 438.378C465.706 446.905 453.465 450.033 443.1 450.508C431.582 450.539 421.081 448.088 411.291 441.158C390.922 426.739 388.118 392.115 402.272 372.571C409.813 362.158 422.731 356.984 435.343 355.325Z"/>
    <!-- T -->
    <path fill="#FEFEFE" d="M569.883 255.462L611.546 255.569L611.482 317.63L665.316 317.618L665.384 357.465C647.408 357.297 629.431 357.251 611.455 357.329C611.39 377.492 611.286 397.794 611.479 417.91C611.564 426.823 612.372 441.156 619.255 447.294C624.686 452.138 631.779 453.283 638.79 452.899C653.701 452.083 660.482 446.887 669.979 436.747C670.048 446.137 669.901 455.73 669.858 465.138L669.752 486.866C642.681 499.507 602.988 504.019 579.119 481.828C560.513 464.529 562.708 425.487 562.804 401.83L563.013 357.501L533.367 357.421C533.621 344.189 533.493 330.562 533.527 317.3C536.31 317.399 539.095 317.473 541.88 317.52C576.143 317.989 569.788 280.015 569.883 255.462Z"/>
    <!-- W -->
    <path fill="#FEFEFE" d="M670.69 317.576C688.566 316.917 710.037 317.449 728.2 317.414C736.611 357.975 748.142 398.827 756.592 439.649C761.557 426.276 766.237 408.703 770.509 394.703C778.505 369.053 786.225 343.318 793.666 317.501L853.33 317.59L884.612 439.473L918.713 317.5L971.143 317.548L957.394 360.461C955.97 365.322 954.326 370.366 952.733 375.194C939.899 414.106 928.289 453.719 915.166 492.496C896.151 492.364 877.136 492.336 858.122 492.412C844.906 451.652 832.313 408.176 820.411 366.941C819.807 369.501 819.104 372.074 818.409 374.612C807.674 413.846 797.198 453.39 785.689 492.395L728.171 492.445L670.69 317.576Z"/>
    <!-- Accent square -->
    <path fill="#10FEA4" d="M974.524 429.224L1038.91 429.064L1038.87 493C1017.6 493.235 995.895 493.01 974.586 493.011L974.524 429.224Z"/>
  </g>

  <!-- Tagline -->
  <text x="820" y="720" font-family="'Segoe UI', 'Inter', sans-serif" font-size="40" font-weight="500" fill="#FEFEFE" fill-opacity="0.9" text-anchor="middle" letter-spacing="0.5">
    By The Way — AI studio
  </text>
  <text x="820" y="772" font-family="'Segoe UI', 'Inter', sans-serif" font-size="26" font-weight="400" fill="#FEFEFE" fill-opacity="0.55" text-anchor="middle" letter-spacing="0.3">
    Agents, products &amp; automations built with Claude Code
  </text>
  <text x="820" y="840" font-family="'JetBrains Mono', 'Consolas', monospace" font-size="22" font-weight="500" fill="#10FEA4" fill-opacity="0.85" text-anchor="middle" letter-spacing="0.8">
    btw-studio.fly.dev
  </text>
</svg>
